<svg xmlns="http://www.w3.org/2000/svg" xmlns:xlink="http://www.w3.org/1999/xlink" viewBox="0 0 279.27 279.27"><defs><style>.cls-1{fill:url(#linear-gradient);}.cls-2{fill:url(#linear-gradient-2);}.cls-3{fill:url(#linear-gradient-3);}.cls-4{fill:url(#linear-gradient-4);}.cls-5{fill:url(#linear-gradient-5);}.cls-6,.cls-7,.cls-9{fill:#fff;}.cls-6{stroke:#009aa2;}.cls-17,.cls-6,.cls-8,.cls-9{stroke-width:3px;}.cls-17,.cls-8{fill:none;}.cls-8,.cls-9{stroke:#477ca8;}.cls-10{fill:url(#linear-gradient-6);}.cls-11{fill:url(#linear-gradient-7);}.cls-12{fill:#b6c2c9;}.cls-13{fill:#d8e5ed;}.cls-14{fill:#879ba6;}.cls-15{fill:#d9e1e4;}.cls-16{fill:#17d0b4;}.cls-17{stroke:#b6c2c9;}</style><linearGradient id="linear-gradient" y1="139.64" x2="279.27" y2="139.64" gradientUnits="userSpaceOnUse"><stop offset="0" stop-color="#88eebe"/><stop offset="1" stop-color="#70d1d6"/></linearGradient><linearGradient id="linear-gradient-2" x1="18.48" y1="257.95" x2="210.7" y2="257.95" gradientUnits="userSpaceOnUse"><stop offset="0" stop-color="#17abfe"/><stop offset="1" stop-color="#70d1d6"/></linearGradient><linearGradient id="linear-gradient-3" x1="186.5" y1="198.54" x2="213.5" y2="209.54" gradientUnits="userSpaceOnUse"><stop offset="0" stop-color="#88eebe"/><stop offset="1" stop-color="#009aa2"/></linearGradient><linearGradient id="linear-gradient-4" x1="179.66" y1="81.76" x2="218.29" y2="81.76" gradientUnits="userSpaceOnUse"><stop offset="0" stop-color="#39cbff"/><stop offset="1" stop-color="#2642dc"/></linearGradient><linearGradient id="linear-gradient-5" x1="203.35" y1="170.22" x2="236.83" y2="170.22" xlink:href="#linear-gradient-3"/><linearGradient id="linear-gradient-6" x1="193.16" y1="91.85" x2="247.79" y2="91.85" xlink:href="#linear-gradient-4"/><linearGradient id="linear-gradient-7" x1="217.84" y1="210.64" x2="217.84" y2="235.66" xlink:href="#linear-gradient-3"/></defs><title>lp-services-img</title><g id="Layer_2" data-name="Layer 2"><g id="Layer_1-2" data-name="Layer 1"><path class="cls-1" d="M14.82,200C3.15,188.31-2.9,165.73,1.37,149.79L25,61.71C29.24,45.78,45.77,29.24,61.71,25l88.08-23.6C165.73-2.9,188.31,3.15,200,14.82l64.48,64.47c11.66,11.67,17.71,34.26,13.44,50.2l-23.6,88.07C250,233.5,233.5,250,217.56,254.3l-88.07,23.6c-15.94,4.27-38.53-1.78-50.2-13.45Z" transform="translate(0 0)"/><path class="cls-2" d="M51.48,236.64l27.81,27.81c11.67,11.67,34.26,17.72,50.2,13.45l88.07-23.6c9.38-2.51,19-9.27,26.14-17.66Z" transform="translate(0 0)"/><path class="cls-3" d="M241.3,179.78H203.09c-.16,0-30,56.19-30,56.19h86.16V193.69C259.25,186,251.22,179.78,241.3,179.78Z" transform="translate(0 0)"/><path class="cls-4" d="M218.29,80V68.89h-24a14.62,14.62,0,0,0-14.62,14.62V94.63h24A14.63,14.63,0,0,0,218.29,80Z" transform="translate(0 0)"/><path class="cls-5" d="M206.3,160.62h27.57a3,3,0,0,1,3,3v13.29a3,3,0,0,1-3,3H206.3a3,3,0,0,1-3-3V163.57A3,3,0,0,1,206.3,160.62Z"/><line class="cls-6" x1="213.88" y1="178.83" x2="213.88" y2="167.51"/><rect class="cls-7" x="185.79" y="75.47" width="55.5" height="85" rx="13" ry="13"/><path class="cls-8" d="M173.46,109.69v3.75a9.68,9.68,0,0,0,19.35,0v-3.75Z" transform="translate(0 0)"/><path class="cls-8" d="M200.31,109.69v3.75a9.68,9.68,0,0,0,19.35,0v-3.75Z" transform="translate(0 0)"/><line class="cls-9" x1="183.1" y1="114.93" x2="179.53" y2="114.93"/><line class="cls-9" x1="209.75" y1="114.93" x2="206.34" y2="114.93"/><line class="cls-9" x1="192.79" y1="109.69" x2="235.5" y2="109.69"/><path class="cls-9" d="M195,109.54v24a2.81,2.81,0,0,0,2.81,2.81h5.16a2.81,2.81,0,0,0,2.81-2.81v-1.41" transform="translate(0 0)"/><path class="cls-10" d="M219.21,68.89a14.6,14.6,0,0,1,12.23,6.61h5a11.33,11.33,0,0,1,11.33,11.33v28h-8V103.44a8,8,0,0,0-8-8H207.78a14.62,14.62,0,0,1-14.62-14.62v-12Z" transform="translate(0 0)"/><path class="cls-7" d="M237.3,122.09a6.93,6.93,0,0,1,6.94-6.93h.57a6.94,6.94,0,0,1,6.94,6.93v8.42a6.94,6.94,0,0,1-6.94,6.94h-.57a6.94,6.94,0,0,1-6.35-4.14" transform="translate(0 0)"/><path class="cls-11" d="M187.59,226.9h0A14.92,14.92,0,0,1,202.51,212h30.65a14.93,14.93,0,0,1,14.93,14.93h0" transform="translate(0 0)"/><path class="cls-7" d="M204.09,224.11a8.15,8.15,0,0,1-8.15,8.15H179.23a8.14,8.14,0,0,1-8.14-8.15h0a8.14,8.14,0,0,1,8.14-8.14h16.71a8.15,8.15,0,0,1,8.15,8.14Z" transform="translate(0 0)"/><path class="cls-12" d="M221.32,232.37l.08-.13-.08-4.25H45.21v4.25a.31.31,0,0,0,0,.14l.45.79c2.27,3.69,6.33,4.35,11,4.35H209.9c4.64,0,8.7-.66,11-4.35Z" transform="translate(0 0)"/><path class="cls-13" d="M178.88,233.09a.23.23,0,0,0,0,.12l.43.64a7.27,7.27,0,0,0,2.58,2.17h26.79c4.46,0,8.37-.54,10.54-3.52l.44-.64.07-.12,0-2.09h-40.8Z" transform="translate(0 0)"/><rect class="cls-14" x="67.11" y="228.97" width="88" height="3"/><path class="cls-15" d="M177,227.83V141.29a4.13,4.13,0,0,0-4.13-4.13H49.33a4.13,4.13,0,0,0-4.13,4.13v86.54Z" transform="translate(0 0)"/><circle class="cls-12" cx="111.11" cy="182.49" r="8" transform="translate(-86.82 262.94) rotate(-80.78)"/><path class="cls-9" d="M200.29,151.47h11.5a5,5,0,0,0,5-5" transform="translate(0 0)"/><polygon class="cls-16" points="65.67 56.22 135.78 56.22 135.78 106.02 91.97 106.02 78.76 116.3 78.76 106.02 65.67 106.02 65.67 56.22"/><polygon class="cls-7" points="148.94 44.04 78.83 44.04 78.83 93.83 122.64 93.83 135.84 104.12 135.84 93.83 148.94 93.83 148.94 44.04"/><line class="cls-17" x1="91.52" y1="59.95" x2="136.24" y2="59.95"/><line class="cls-17" x1="91.52" y1="69.73" x2="136.24" y2="69.73"/><line class="cls-17" x1="91.52" y1="79.5" x2="136.24" y2="79.5"/></g></g></svg>